<?xml version="1.0" encoding="utf-8"?><svg width="156" height="106" viewBox="0 0 156 106" xmlns="http://www.w3.org/2000/svg" xmlns:xlink="http://www.w3.org/1999/xlink"><svg id="arrow" data-name="Layer 4" viewBox="0 0 30 30" width="30" height="30" x="126"><defs><style>.acls-1{fill:#999}</style></defs><title>arrow</title><path class="acls-1" d="M10 25a1 1 0 0 1-.67-1.74L18.5 15 9.33 6.74a1 1 0 0 1 1.34-1.49l10 9a1 1 0 0 1 0 1.49l-10 9A1 1 0 0 1 10 25z"/></svg><svg viewBox="0 0 30 30" width="30" height="30" id="arrow-blue" x="126" y="30"><style>.bst3{fill:#007aff}</style><path class="bst3" d="M10 25c-.3 0-.5-.1-.7-.3-.4-.4-.3-1 .1-1.4l9.2-8.3-9.3-8.3c-.4-.4-.4-1-.1-1.4.4-.4 1-.4 1.4-.1l10 9c.2.2.3.5.3.7s-.1.6-.3.7l-10 9c-.1.3-.4.4-.6.4z" id="bLayer_4"/></svg><svg width="40" height="40" viewBox="0 0 40 40" id="ask-siri" y="66"><path fill="#858E98" d="M39.659 19.937c0 10.882-8.819 19.701-19.701 19.701C9.081 39.638.259 30.819.259 19.937.259 9.059 9.081.238 19.958.238c10.881 0 19.701 8.821 19.701 19.699z"/><path fill="#fff" d="M24.746 9.824c0-2.502-2.147-4.335-4.794-4.335-2.64 0-4.782 1.833-4.782 4.335v11.259c0 2.497 2.143 4.33 4.782 4.33 2.646 0 4.794-1.833 4.794-4.33V9.824z"/><path fill="#fff" d="M26.563 15.698v5.6c0 3.319-2.904 5.924-6.611 5.924-3.7 0-6.604-2.604-6.604-5.924v-5.6h-1.544v5.6c0 3.733 3.286 7.106 7.315 7.344v4.433H14.3v1.549h11.446v-1.549H20.71v-4.433c4.028-.237 7.444-3.61 7.444-7.344v-5.6h-1.591z"/></svg><svg width="40" height="40" viewBox="-0.3 0.3 40 40" id="force-click" x="40" y="66"><g fill="#95D600"><path d="M26.244 20.306a6.542 6.542 0 0 1-6.54 6.542c-3.622 0-6.555-2.926-6.555-6.542a6.556 6.556 0 0 1 6.555-6.553c3.608-.001 6.54 2.938 6.54 6.553"/><path d="M19.704 40C8.84 40 0 31.166 0 20.306 0 9.44 8.84.6 19.704.6 30.564.6 39.4 9.44 39.4 20.306 39.4 31.166 30.564 40 19.704 40zm0-33.117c-7.4 0-13.416 6.021-13.416 13.422 0 7.396 6.016 13.413 13.416 13.413 7.396 0 13.407-6.018 13.407-13.413 0-7.401-6.011-13.422-13.407-13.422z"/></g></svg><svg id="icon-arrow-2" viewBox="0 0 30 30" width="30" height="30" x="126" y="60"><style>.est0{fill:#999}</style><title>arrow</title><path class="est0" d="M26.5 9.7l.5.7-12 9.9-12-9.9.5-.7L15 19.2l11.5-9.5z"/></svg><svg id="icon-close" viewBox="0 0 66 66" width="66" height="66"><style>.fst0{fill:#333}</style><path class="fst0" d="M66 64.4L64.4 66 33 34.6 1.6 66 0 64.4 31.4 33 0 1.6 1.6 0 33 31.4 64.4 0 66 1.6 34.6 33 66 64.4z"/></svg><svg viewBox="0 0 30 48" width="30" height="48" id="nav-left" x="66"><style>.gst3{fill:#007aff}</style><path class="gst3" d="M24 46c-.3 0-.6-.1-.8-.3l-18-21c-.3-.4-.3-.9 0-1.3l18-21c.4-.4 1-.5 1.4-.1.4.4.5 1 .1 1.4L7.3 24l17.4 20.3c.4.4.3 1-.1 1.4-.1.2-.4.3-.6.3z" id="gLayer_4"/></svg><svg viewBox="0 0 30 48" width="30" height="48" id="nav-right" x="96"><style>.hst3{fill:#007aff}</style><path class="hst3" d="M6 46c.3 0 .6-.1.8-.3l18-21c.3-.4.3-.9 0-1.3l-18-21c-.4-.4-1-.5-1.4-.1-.4.4-.5 1-.1 1.4L22.7 24 5.2 44.3c-.4.4-.3 1 .1 1.4.2.2.5.3.7.3z" id="hLayer_4"/></svg><svg width="40" height="40" viewBox="0 0 40 40" id="tip" x="80" y="66"><path fill="#FBB02B" d="M.3 20C.3 30.9 9.1 39.7 20 39.7c10.9 0 19.7-8.8 19.7-19.7C39.7 9.1 30.9.3 20 .3 9.1.3.3 9.1.3 20z"/><path fill="#FFF" d="M22.8 32.1c.4 0 .7-.3.7-.699 0-.4-.3-.7-.7-.7h-5.6c-.4 0-.7.3-.7.7 0 .399.3.699.7.699h5.6zm-.7 2.1c.4 0 .7-.3.7-.7s-.3-.7-.7-.7h-4.3c-.4 0-.7.3-.7.7s.3.7.7.7h4.3zm-.7 2.1c.399 0 .699-.3.699-.7 0-.399-.3-.699-.699-.699h-2.8c-.4 0-.7.3-.7.699 0 .4.3.7.7.7h2.8zm.7-6.298c.7 0 1.301-.599 1.301-1.299 0-1.6.506-3.734 3.8-6.903 0 0 3-2.7 3-7.3 0-5.7-4.601-10.3-10.3-10.3S9.7 8.9 9.7 14.6c0 4.6 3 7.3 3 7.3 3.2 3.1 3.8 5.1 3.8 6.8 0 .7.6 1.302 1.3 1.302h4.3z"/><path fill="#FBB02B" d="M20.7 17h3.9c.4 0 .7-.3.7-.7 0-.4-.3-.7-.7-.7h-9.3c-.4 0-.7.3-.7.7 0 .4.3.7.7.7h3.9v10c0 .4.3.7.7.7s.7-.3.7-.7V17h.1z"/></svg></svg>